#!OML:ASF I:\Actors\actors\Patient Classification 1\Patient 1\Session 1\Subject1.ASF
:FULLY-SPECIFIED
:DEGREES
387
root -0.526622 17.6596 8.66388 8.78256 -1.26308 -6.94367
lowerback 8.54592 5.40255 10.9486
upperback -9.98559 8.78295 -3.06327
thorax -13.9002 2.80084 -11.2383
lowerneck -12.8271 -6.06405 -3.31826
upperneck 15.4275 -7.27378 -1.86712
head 6.87812 -3.85797 -0.766171
rclavicle -7.196e-014 -1.27222e-014
rhumerus 33.0039 10.3985 -32.074
rradius 120.694
rwrist -12.1338
rhand 12.5243 -31.5642
rfingers 7.12502
rthumb 37.5165 -57.4934
lclavicle -7.196e-014 -1.27222e-014
lhumerus -36.8874 -32.0887 54.639
lradius 132.735
lwrist -328.628
lhand -7.97715 -28.2453
lfingers 7.12502
lthumb 17.9308 0.948094
rfemur -4.9221 20.3034 23.516
rtibia 8.4168
rfoot -15.0299 -21.0014
rtoes 0.697983
lfemur 1.82062 -28.5179 -11.9235
ltibia 0.289823
lfoot -12.7445 38.5345
ltoes -3.27546
388
root -0.562517 17.6878 8.64385 9.02274 -0.655436 -7.34113
lowerback 8.96468 5.91888 11.739
upperback -10.0919 9.64223 -3.40937
thorax -13.9005 3.09796 -12.2585
lowerneck -13.0573 -6.46044 -3.77087
upperneck 15.588 -7.76466 -1.55388
head 7.0053 -4.09211 -0.657086
rclavicle 3.06128e-014 -1.51076e-014
rhumerus 34.9631 9.38049 -30.6726
rradius 112.179
rwrist -12.5919
rhand 11.8494 -28.3576
rfingers 7.12502
rthumb 36.8782 -54.4534
lclavicle 3.06128e-014 -1.51076e-014
lhumerus -36.5151 -31.0326 51.5792
lradius 132.829
lwrist -327.841
lhand -7.65092 -28.0094
lfingers 7.12502
lthumb 18.2447 1.15496
rfemur -5.06947 20.5323 24.0693
rtibia 8.13948
rfoot -15.0191 -21.5861
rtoes 1.25926
lfemur 1.22545 -28.7582 -10.9405
ltibia 0.233842
lfoot -12.4219 38.4673
ltoes -3.49679
389
root -0.596325 17.7138 8.62856 9.31235 -0.272489 -7.57367
lowerback 9.18461 6.43888 12.271
upperback -10.2225 10.4513 -3.6979
thorax -13.833 3.41202 -13.0276
lowerneck -13.2177 -6.79064 -4.19002
upperneck 15.9014 -8.13881 -1.43676
head 7.16314 -4.2862 -0.606966
rclavicle -1.14202e-013 -1.27222e-014
rhumerus 37.2133 8.98791 -29.2498
rradius 102.125
rwrist -14.2959
rhand 11.0445 -26.7932
rfingers 7.12502
rthumb 36.1163 -53.0811
lclavicle -1.14202e-013 -1.27222e-014
lhumerus -36.5878 -29.9202 49.1245
lradius 132.903
lwrist -327.878
lhand -7.58358 -28.2515
lfingers 7.12502
lthumb 18.3095 0.906782
rfemur -5.24797 20.6696 24.367
rtibia 7.79382
rfoot -14.917 -21.9132
rtoes 1.80371
lfemur 0.676432 -28.8545 -10.176
ltibia 0.080599
lfoot -12.0517 38.4408
ltoes -3.74808
390
root -0.627772 17.7348 8.6169 9.52259 -0.110621 -7.73786
lowerback 9.33776 7.07144 12.738
upperback -10.2637 11.3948 -3.91941
thorax -13.5692 3.83397 -13.6584
lowerneck -13.5518 -7.22582 -5.03207
upperneck 16.5067 -8.57777 -1.19336
head 7.47755 -4.52574 -0.474715
rclavicle -7.71285e-014 4.77083e-015
rhumerus 39.7242 8.8746 -27.4508
rradius 89.5776
rwrist -14.0555
rhand 11.6141 -24.6474
rfingers 7.12502
rthumb 36.6556 -50.8001
lclavicle -7.71285e-014 4.77083e-015
lhumerus -36.6745 -29.0059 47.4821
lradius 132.935
lwrist -328.309
lhand -7.82514 -28.552
lfingers 7.12502
lthumb 18.0771 0.627931
rfemur -5.30206 20.8658 24.5969
rtibia 7.3881
rfoot -14.7941 -22.1177
rtoes 2.16553
lfemur 0.358102 -29.0882 -9.67864
ltibia -0.0400466
lfoot -12.0524 38.6762
ltoes -3.53583
391
root -0.656014 17.7482 8.60968 9.61082 -0.144114 -7.85865
lowerback 9.12759 7.27845 12.748
upperback -10.3621 11.6477 -4.00228
thorax -13.4576 3.96289 -13.7489
lowerneck -13.4907 -7.02885 -4.73497
upperneck 17.1102 -8.36454 -1.24897
head 7.64527 -4.41446 -0.527332
rclavicle -7.36497e-014 -1.11319e-014
rhumerus 43.7203 9.96985 -26.7264
rradius 74.5819
rwrist -11.792
rhand 12.3077 -23.9777
rfingers 7.12502
rthumb 37.3117 -49.9609
lclavicle -7.36497e-014 -1.11319e-014
lhumerus -38.0291 -27.7191 45.7324
lradius 133.234
lwrist -327.909
lhand -7.89741 -28.5968
lfingers 7.12502
lthumb 18.0075 0.589521
rfemur -5.20616 20.9715 24.8001
rtibia 6.97717
rfoot -14.6167 -22.1057
rtoes 2.02253
lfemur 0.37364 -29.4596 -9.46872
ltibia -0.174904
lfoot -12.4077 39.1633
ltoes -2.88814
392
root -0.679674 17.7557 8.59672 9.568 -0.351373 -7.99654
lowerback 9.06712 7.63314 12.9537
upperback -10.4002 12.1376 -4.19348
thorax -13.2309 4.19597 -14.1057
lowerneck -13.5577 -7.03388 -4.46423
upperneck 17.8811 -8.41978 -1.28426
head 7.89867 -4.42965 -0.608565
rclavicle 6.69904e-014 1.43125e-014
rhumerus 47.7033 11.2857 -26.0424
rradius 57.8726
rwrist -7.5276
rhand 11.6478 -23.6327
rfingers 7.12502
rthumb 36.6875 -49.7773
lclavicle 6.69904e-014 1.43125e-014
lhumerus -38.7375 -27.0582 44.3178
lradius 133.522
lwrist -326.429
lhand -7.89766 -28.4475
lfingers 7.12502
lthumb 18.0073 0.738901
rfemur -5.07247 20.9801 25.0173
rtibia 6.70902
rfoot -14.4179 -21.8862
rtoes 1.97997
lfemur 0.546553 -29.6112 -9.33205
ltibia -0.260691
lfoot -12.7745 39.5807
ltoes -2.16909
393
root -0.705938 17.762 8.56955 9.43937 -0.5935 -8.32356
lowerback 9.37939 8.04404 13.3872
upperback -10.4618 12.7956 -4.43733
thorax -13.1507 4.46037 -14.7396
lowerneck -13.7189 -7.18427 -4.22105
upperneck 18.6592 -8.6892 -1.21255
head 8.18201 -4.53495 -0.679904
rclavicle 9.91935e-014 4.92986e-014
rhumerus 51.1619 12.8593 -24.9157
rradius 41.5442
rwrist -3.02154
rhand 7.35609 -25.3844
rfingers 7.12502
rthumb 32.6146 -52.4651
lclavicle 9.91935e-014 4.92986e-014
lhumerus -38.6536 -26.9447 43.0721
lradius 133.655
lwrist -324.831
lhand -7.72741 -27.9117
lfingers 7.12502
lthumb 18.1711 1.25951
rfemur -5.03939 21.1281 25.4738
rtibia 6.72189
rfoot -14.3378 -21.7179
rtoes 2.02619
lfemur 0.607928 -29.4838 -8.86075
ltibia -0.197785
lfoot -13.0213 39.7756
ltoes -1.56755
394
root -0.737971 17.7678 8.55377 9.24102 -0.489162 -8.83938
lowerback 9.60293 8.45827 13.9172
upperback -10.4332 13.4538 -4.68794
thorax -12.868 4.75074 -15.3895
lowerneck -13.9932 -7.51451 -4.23972
upperneck 19.1996 -9.23092 -0.747777
head 8.4445 -4.74309 -0.614079
rclavicle -1.32589e-013 -1.59028e-015
rhumerus 52.0373 13.0634 -25.9849
rradius 29.1258
rwrist 6.40733
rhand 4.99977 -25.272
rfingers 7.12502
rthumb 30.3697 -52.7917
lclavicle -1.32589e-013 -1.59028e-015
lhumerus -37.6885 -27.2156 41.996
lradius 133.522
lwrist -324.545
lhand -7.66988 -27.5953
lfingers 7.12502
lthumb 18.2265 1.57082
rfemur -4.79796 21.0644 26.2967
rtibia 6.67974
rfoot -14.3426 -21.6103
rtoes 1.9832
lfemur 0.582097 -28.788 -8.03748
ltibia -0.0816975
lfoot -12.5496 39.2071
ltoes -2.34818
395
root -0.771411 17.7735 8.55766 8.95506 0.0715324 -9.35941
lowerback 9.56974 8.8998 14.2759
upperback -10.2659 14.0626 -4.957
thorax -12.2848 5.09281 -15.865
lowerneck -14.1936 -8.0812 -4.48344
upperneck 19.2267 -10.1451 0.141586
head 8.56775 -5.09744 -0.40524
rclavicle 2.5842e-014 -3.65764e-014
rhumerus 48.7764 8.67613 -34.1325
rradius 23.6507
rwrist 23.4422
rhand 7.73607 -22.1683
rfingers 7.12502
rthumb 32.976 -49.1736
lclavicle 2.5842e-014 -3.65764e-014
lhumerus -36.2673 -27.7662 41.337
lradius 133.333
lwrist -325.964
lhand -8.42635 -28.3242
lfingers 7.12502
lthumb 17.4986 0.90822
rfemur -4.24959 20.5762 27.2535
rtibia 6.43053
rfoot -14.3045 -21.5415
rtoes 1.85911
lfemur 0.56894 -27.9357 -7.19055
ltibia 0.00439553
lfoot -11.558 38.1264
ltoes -4.34026
396
root -0.806421 17.7778 8.56514 8.62933 0.848965 -9.5342
lowerback 9.40605 9.1078 13.6725
upperback -10.028 14.1798 -5.06653
thorax -11.9399 5.26941 -15.583
lowerneck -14.2874 -8.50112 -4.57255
upperneck 18.7875 -10.8956 1.06929
head 8.51315 -5.36358 -0.173882
rclavicle -3.88624e-014 7.95139e-015
rhumerus 45.3894 8.03457 -36.5215
rradius 24.7873
rwrist 21.2349
rhand 7.34003 -22.2143
rfingers 7.12502
rthumb 32.5993 -49.2982
lclavicle -3.88624e-014 7.95139e-015
lhumerus -35.6467 -27.8481 41.0261
lradius 133.398
lwrist -327.39
lhand -8.98356 -28.8983
lfingers 7.12502
lthumb 16.9623 0.381051
rfemur -3.72337 19.9883 27.7999
rtibia 6.26098
rfoot -14.3334 -21.6433
rtoes 1.80687
lfemur 0.601174 -27.863 -6.83197
ltibia 0.05272
lfoot -10.9992 37.5138
ltoes -5.69999
397
root -0.840708 17.7765 8.57653 8.41631 1.92743 -9.29433
lowerback 9.0032 8.99061 12.0646
upperback -9.82386 13.6929 -4.91899
thorax -11.9653 5.20374 -14.4114
lowerneck -14.1712 -8.62304 -4.46747
upperneck 18.2257 -11.1745 1.52216
head 8.3316 -5.4492 -0.056979
rclavicle 5.38706e-014 -2.38542e-014
rhumerus 41.6101 13.7361 -31.6297
rradius 32.768
rwrist 1.89741
rhand 4.09665 -25.6733
rfingers 7.12502
rthumb 29.508 -53.3486
lclavicle 5.38706e-014 -2.38542e-014
lhumerus -36.4351 -27.372 41.3213
lradius 133.747
lwrist -327.395
lhand -8.49711 -28.6626
lfingers 7.12502
lthumb 17.4305 0.575934
rfemur -3.41432 19.248 27.7821
rtibia 6.22042
rfoot -14.5967 -21.9277
rtoes 2.11062
lfemur 0.425317 -28.4358 -6.92628
ltibia 0.16405
lfoot -10.8012 37.1942
ltoes -6.48662
398
root -0.868182 17.7659 8.59423 8.35945 3.49029 -9.01014
lowerback 8.51217 8.80753 10.4581
upperback -9.75973 13.1548 -4.62117
thorax -12.138 5.09629 -13.0752
lowerneck -13.6292 -8.78403 -4.74913
upperneck 17.835 -11.3503 1.55049
head 8.1293 -5.55981 0.00842529
rclavicle 4.25399e-014 6.36111e-015
rhumerus 38.252 18.9942 -27.421
rradius 41.6618
rwrist -8.23211
rhand 2.02086 -28.1067
rfingers 7.12502
rthumb 27.5245 -56.1147
lclavicle 4.25399e-014 6.36111e-015
lhumerus -38.1392 -27.0487 42.6369
lradius 134.323
lwrist -326.676
lhand -7.74977 -28.3557
lfingers 7.12502
lthumb 18.1496 0.817516
rfemur -3.25503 18.2627 27.6483
rtibia 6.15877
rfoot -15.0143 -22.4585
rtoes 2.51291
lfemur -0.192738 -29.0658 -6.86612
ltibia 0.408182
lfoot -10.4415 36.5055
ltoes -7.68838
399
root -0.888644 17.7435 8.61554 8.31861 5.46681 -9.06028
lowerback 8.11066 8.49697 9.41099
upperback -9.66931 12.572 -4.17202
thorax -12.249 4.93106 -11.8809
lowerneck -13.513 -9.00988 -5.45789
upperneck 17.8619 -11.4965 1.48465
head 8.16385 -5.68232 0.0799194
rclavicle 7.59357e-014 -2.70347e-014
rhumerus 34.6329 22.9738 -24.461
rradius 50.5593
rwrist -8.1398
rhand 3.0574 -28.6825
rfingers 7.12502
rthumb 28.5154 -56.5286
lclavicle 7.59357e-014 -2.70347e-014
lhumerus -39.9742 -26.4249 44.2941
lradius 134.825
lwrist -326.612
lhand -7.4841 -28.4553
lfingers 7.12502
lthumb 18.4052 0.693933
rfemur -3.00964 17.3707 27.9426
rtibia 5.93709
rfoot -15.5188 -23.4465
rtoes 3.2248
lfemur -1.05673 -29.5973 -6.22828
ltibia 0.634521
lfoot -9.7071 35.3434
ltoes -9.37717
400
root -0.904206 17.7118 8.64362 8.14969 7.74033 -9.4361
lowerback 7.81118 8.14284 9.05743
upperback -9.69228 12.0434 -3.89346
thorax -12.3546 4.71493 -11.2862
lowerneck -12.8925 -9.3165 -5.89466
upperneck 17.8372 -11.8729 1.54694
head 8.09248 -5.89151 0.149698
rclavicle -7.53394e-014 8.11041e-014
rhumerus 29.8403 26.0078 -23.3228
rradius 60.1264
rwrist -8.16382
rhand 2.8472 -29.8037
rfingers 7.12502
rthumb 28.3145 -57.6833
lclavicle -7.53394e-014 8.11041e-014
lhumerus -41.1076 -25.9671 45.337
lradius 135.021
lwrist -327.477
lhand -7.84506 -28.9649
lfingers 7.12502
lthumb 18.0579 0.216847
rfemur -2.4327 16.7961 28.7375
rtibia 5.3954
rfoot -16.1738 -24.95
rtoes 4.68146
lfemur -1.85669 -30.1608 -5.18154
ltibia 0.709353
lfoot -8.79034 33.9031
ltoes -11.1923
